# xmcd
#
# Track frame offsets: 
#        150
#        6692
#        11212
#        19462
#        28452
#        35822
#        43805
#        48060
#        52685
#        62597
#        73357
#        81652
#        87655
#        91987
#        97640
#        104780
#        111372
#        119602
#        128992
#        135097
#        138932
#        148122
#        154337
#
# Disc length: 2168 seconds
#
# Revision: 3
# Processed by: cddbd v1.5.2PL0 Copyright (c) Steve Scherf et al.
# Submitted via: ExactAudioCopy v0.99pb4
#
DISCID=5a087617
DTITLE=Hinário Litúrgico da CNBB - Liturgia XI - Tempo Comum 2° ao 17°
DTITLE=DTC
DYEAR=2003
DGENRE=Religioso
TTITLE0=Cantai ao Senhor Deus um canto novo
TTITLE1=Aleluia... No casamento de Caná
TTITLE2=Foi assim em Caná, foi assim
TTITLE3=Se houver amor na vida
TTITLE4=Vossa lei é perfeita, ó Senhor
TTITLE5=Minha boca anunciará todos os dias
TTITLE6=Aleluia... Eu te louvo, ó pai santo
TTITLE7=Aleluia... Eu os escolhi foi do meio do mundo
TTITLE8=É feliz quem a Deus se confia
TTITLE9=Felizes os pobres, felizes os mansos
TTITLE10=O Senhor é bondoso e compassivo
TTITLE11=Aleluia... Ide, vós, por este mundo afora
TTITLE12=Aleluia... Deus o mundo tanto amou
TTITLE13=Eu vos exalto, ó Senhor, pois me livrastes
TTITLE14=Senhor, meu Deus, obrigado
TTITLE15=A minha alma tem sede de vós
TTITLE16=Ó Senhor, sois minha herança para sempre
TTITLE17=Partiste a Jerusalém ao encontro da cruz
TTITLE18=Aleluia... O senhor reconciliou o mundo em Cristo
TTITLE19=Aleluia... Semente é de Deus a palavra
TTITLE20=Naquele dia em que gritei
TTITLE21=Alegre em prece
TTITLE22=Ó Senhor, quem te pede, recebe
EXTD=YEAR: 2005
EXTT0=
EXTT1=
EXTT2=
EXTT3=
EXTT4=
EXTT5=
EXTT6=
EXTT7=
EXTT8=
EXTT9=
EXTT10=
EXTT11=
EXTT12=
EXTT13=
EXTT14=
EXTT15=
EXTT16=
EXTT17=
EXTT18=
EXTT19=
EXTT20=
EXTT21=
EXTT22=
PLAYORDER=
